<svg id="Layer_1" viewBox="0 0 24 24" xmlns="http://www.w3.org/2000/svg" data-name="Layer 1"><path d="m19 12c0 .828-.672 1.5-1.5 1.5s-1.5-.672-1.5-1.5.672-1.5 1.5-1.5 1.5.672 1.5 1.5zm5-7.799v19.799h-16v-4.316l2-2.055v4.371h2v-18h-1c-.552 0-1 .449-1 1v5.371l-2-2.054v-3.316c0-1.654 1.346-3 3-3h1.19c.18-.507.48-.968.908-1.319.699-.573 1.608-.8 2.491-.623l6 1.2c1.396.279 2.411 1.516 2.411 2.941zm-2 0c0-.475-.338-.887-.803-.98l-6.001-1.2c-.294-.059-.598.017-.83.208s-.366.472-.366.773v19h8zm-12.049 9.799c0-.535-.208-1.037-.576-1.405l-3.183-3.269-1.434 1.396 2.205 2.278h-6.963v2h6.977l-2.218 2.278 1.434 1.396 3.173-3.259c.378-.377.586-.88.586-1.415z"/></svg>